<svg xmlns="http://www.w3.org/2000/svg" width="24.828" height="30" viewBox="0 0 24.828 30">
  <g id="document" transform="translate(-40)">
    <path id="Path_8" data-name="Path 8" d="M61.724,59.931H40V32H54.483l7.241,7.241Z" transform="translate(0 -29.931)" fill="#fcf05a"/>
    <path id="Path_9" data-name="Path 9" d="M109.724,26.9H88V0h14.483l7.241,7.241Z" transform="translate(-44.897)" fill="#fdbd40"/>
    <path id="Path_10" data-name="Path 10" d="M312,7.241h7.241L312,0Z" transform="translate(-254.414)" fill="#f49e21"/>
    <g id="Group_24" data-name="Group 24" transform="translate(45.69 4.655)">
      <path id="Path_11" data-name="Path 11" d="M129.552,337.034h-1.034a.517.517,0,0,1,0-1.034h1.034a.517.517,0,1,1,0,1.034Z" transform="translate(-128 -318.931)" fill="#e9686a"/>
      <path id="Path_12" data-name="Path 12" d="M188.931,337.034H176.517a.517.517,0,1,1,0-1.034h12.414a.517.517,0,0,1,0,1.034Z" transform="translate(-172.897 -318.931)" fill="#e9686a"/>
      <path id="Path_13" data-name="Path 13" d="M129.552,289.034h-1.034a.517.517,0,0,1,0-1.034h1.034a.517.517,0,1,1,0,1.034Z" transform="translate(-128 -274.034)" fill="#e9686a"/>
      <path id="Path_14" data-name="Path 14" d="M188.931,289.034H176.517a.517.517,0,0,1,0-1.034h12.414a.517.517,0,1,1,0,1.034Z" transform="translate(-172.897 -274.034)" fill="#e9686a"/>
      <path id="Path_15" data-name="Path 15" d="M129.552,241.034h-1.034a.517.517,0,0,1,0-1.034h1.034a.517.517,0,0,1,0,1.034Z" transform="translate(-128 -229.138)" fill="#e9686a"/>
      <path id="Path_16" data-name="Path 16" d="M188.931,241.034H176.517a.517.517,0,0,1,0-1.034h12.414a.517.517,0,0,1,0,1.034Z" transform="translate(-172.897 -229.138)" fill="#e9686a"/>
      <path id="Path_17" data-name="Path 17" d="M129.552,193.034h-1.034a.517.517,0,0,1,0-1.034h1.034a.517.517,0,0,1,0,1.034Z" transform="translate(-128 -184.241)" fill="#e9686a"/>
      <path id="Path_18" data-name="Path 18" d="M188.931,193.034H176.517a.517.517,0,0,1,0-1.034h12.414a.517.517,0,0,1,0,1.034Z" transform="translate(-172.897 -184.241)" fill="#e9686a"/>
      <path id="Path_19" data-name="Path 19" d="M129.552,145.034h-1.034a.517.517,0,0,1,0-1.034h1.034a.517.517,0,0,1,0,1.034Z" transform="translate(-128 -139.345)" fill="#e9686a"/>
      <path id="Path_20" data-name="Path 20" d="M188.931,145.034H176.517a.517.517,0,0,1,0-1.034h12.414a.517.517,0,0,1,0,1.034Z" transform="translate(-172.897 -139.345)" fill="#e9686a"/>
      <path id="Path_21" data-name="Path 21" d="M136,72h3.1v3.1H136Z" transform="translate(-135.483 -72)" fill="#e9686a"/>
    </g>
  </g>
</svg>
